<svg version="1.1" id="Layer_1" xmlns="http://www.w3.org/2000/svg" xmlns:xlink="http://www.w3.org/1999/xlink" x="0px" y="0px" viewBox="0 0 163.2 107.8" style="enable-background:new 0 0 163.2 107.8;" xml:space="preserve">
 <style type="text/css">
  .st0{fill:#ED1D24;}
 </style>
 <g>
  <path class="st0" d="M60.8,41.5c5.2,3.2,12.5,5.3,20.8,5.3c8.2,0,15.6-2,20.9-5.3c5.3-3.2,8.4-7.6,8.4-12.1c0-4.6-3.1-8.9-8.4-12.1
		c-5.3-3.2-12.6-5.2-20.9-5.2c-8.2,0-15.6,2-20.8,5.2s-8.3,7.5-8.3,12.1C52.5,33.9,55.5,38.3,60.8,41.5 M62.1,66.3
		c-5.3-3.2-12.6-5.2-20.9-5.2c-8.2,0-15.6,2-20.8,5.2s-8.3,7.5-8.3,12c0,4.6,3.1,8.9,8.3,12.2c5.2,3.2,12.5,5.2,20.8,5.3
		c8.2,0,15.6-2.1,20.9-5.3c5.3-3.2,8.4-7.5,8.4-12.1C70.5,73.8,67.4,69.5,62.1,66.3 M142.7,66.3c-5.3-3.2-12.7-5.2-20.9-5.2
		c-8.2,0-15.6,2-20.8,5.2c-5.2,3.2-8.3,7.5-8.3,12.1s3.1,8.9,8.3,12.1c5.2,3.2,12.5,5.2,20.8,5.3c8.2,0,15.6-2.1,20.9-5.3
		s8.4-7.5,8.4-12.1S148,69.5,142.7,66.3 M121.7,49.1c-3.7,0-7.3,0.4-10.7,1c7.5-5.3,12.1-12.7,12.1-20.8C123.1,13,104.6,0,81.6,0
		S40.3,13,40.3,29.3c0,8.1,4.5,15.4,11.9,20.8c-3.5-0.7-7.1-1-10.9-1c-23,0-41.3,13-41.3,29.2c0,16.3,18.2,29.5,41.2,29.5
		c19.6,0,35.9-9.6,40.4-22.4c4.4,12.9,20.5,22.4,40,22.4c23,0,41.6-13.2,41.6-29.5C163.2,62,144.7,49.1,121.7,49.1 M47.8,29.3
		c0-7.3,5.6-12.3,8.9-14.6c6.5-4.6,15.4-7.1,24.9-7.1c9.6,0,18.5,2.5,25,7.1c3.3,2.3,8.9,7.3,9,14.6c-0.1,12.2-15.8,22-34.1,22
		c-9.5,0-18.3-2.5-24.8-7.2C51,40,47.8,34.8,47.8,29.3 M41.2,100.3c-9.5,0-18.3-2.5-24.8-7.2c-5.6-4-8.9-9.3-8.9-14.7
		c0-7.3,5.6-12.3,8.9-14.6c6.5-4.6,15.4-7.1,24.9-7.1c9.6,0,18.5,2.5,25,7.2c3.3,2.3,8.9,7.3,9,14.6
		C75.2,90.5,59.5,100.3,41.2,100.3 M81.6,71.3c-1.8-5.2-5.5-9.8-10.6-13.5c3.3,0.6,6.9,1,10.5,1c3.7,0,7.3-0.3,10.8-1
		C87.1,61.4,83.4,66.1,81.6,71.3 M121.6,100.3c-9.5,0-18.3-2.5-24.8-7.2c-5.7-4-8.9-9.3-8.9-14.7c0-7.3,5.6-12.3,8.9-14.6
		c6.5-4.6,15.4-7.1,24.9-7.1c9.6,0,18.5,2.5,25.1,7.2c3.3,2.3,8.9,7.3,8.9,14.6C155.6,90.5,139.9,100.3,121.6,100.3">
  </path>
 </g>
</svg>